<svg width="1187" height="654" viewBox="0 0 1187 654" fill="none" xmlns="http://www.w3.org/2000/svg">
<path opacity="0.1" d="M1156.88 281.019C1142.02 247.188 1118.4 217.907 1086.35 199.028C1055.7 180.981 1020.24 172.893 985.066 170.033C948.226 167.068 911.074 169.669 874.469 174.168C842.728 178.094 811.196 183.815 780.106 191.356C781.172 174.532 780.106 157.447 776.281 140.232C768.424 104.84 747.507 70.5922 714.517 53.6374C697.19 44.7179 677.652 41.5454 658.373 40.3752C640.005 39.257 621.534 39.595 603.192 41.0253C554.202 44.8739 506.045 57.2 460.958 76.6772C460.021 73.8167 458.955 70.9563 457.758 68.1218C444.073 35.6424 415.247 15.411 380.957 9.42998C345.314 3.26695 308.656 9.84605 273.871 17.8034C234.872 26.7489 196.524 39.0489 160.334 56.1858C91.0517 88.9513 30.2765 141.012 -2.27049 211.458C-17.1521 243.651 -25.4254 278.653 -24.9831 314.201C-24.9571 316.203 -21.8611 316.203 -21.8871 314.201C-22.7717 240.635 14.068 171.229 67.0642 121.821C123.807 68.9279 198.007 38.6069 272.701 21.262C307.537 13.1746 344.403 6.25745 380.124 12.4465C416.417 18.7395 445.686 41.2853 457.654 76.6252C457.81 77.0673 457.94 77.5094 458.096 77.9514C439.442 86.1688 421.335 95.6084 403.929 106.192C343.987 142.624 292.109 192.709 255.243 252.519C245.019 269.109 235.445 286.454 229.253 304.969C226.235 314.019 224.101 323.407 223.347 332.924C222.696 340.959 222.176 351.023 225.923 358.46C229.591 365.768 237.11 366.678 244.525 366.366C252.954 366.028 261.357 364.935 269.631 363.245C286.099 359.839 301.97 353.78 316.773 345.848C348.357 328.919 375.077 303.773 397.347 275.949C420.814 246.616 441.289 213.304 454.74 178.172C466.734 146.837 471.625 111.991 461.921 79.6677C482.968 70.5402 504.718 62.9989 526.885 57.174C559.692 48.5405 593.461 43.6517 627.361 42.9496C665.892 42.1695 706.426 44.9519 735.903 72.6466C764.21 99.249 776.776 138.334 777.27 176.456C777.348 181.735 777.192 186.962 776.828 192.189C774.018 192.891 771.208 193.593 768.398 194.321C698.101 212.472 630.015 239.985 567.627 277.197C506.305 313.759 450.447 359.865 404.84 414.916C393.549 428.542 382.882 442.688 372.943 457.303C361.86 473.608 350.907 490.51 344.195 509.156C333.658 538.488 337.092 579.835 369.249 594.398C386.238 602.095 405.855 599.209 423.572 595.854C441.237 592.525 458.591 587.507 475.345 581.032C507.918 568.419 538.15 550.373 565.728 529.023C623.511 484.243 669.847 425.942 709.184 364.779C741.939 313.811 774.954 255.821 779.872 194.607C818.741 185.115 858.338 178.458 898.144 174.714C966.802 168.239 1045.53 169.201 1102.45 213.72C1163.96 261.802 1180.37 348.345 1176.16 422.171C1171.42 505.411 1140.65 585.114 1103.83 659.045C1067.15 732.689 1024.56 803.707 976.35 870.408C932.642 930.894 883.965 993.357 818.663 1031.82C788.821 1049.4 755.624 1060.68 720.84 1061.9C718.862 1061.98 718.836 1065.08 720.84 1065C796.106 1062.4 858.833 1014.19 907.848 960.955C935.296 931.154 959.96 898.701 983.479 865.753C1008.82 830.257 1032.47 793.591 1054.58 755.989C1098.32 681.642 1139.19 603.421 1162.4 519.999C1183.83 442.871 1189.74 355.86 1156.88 281.019ZM446.571 189.718C431.637 223.238 411.344 255.145 387.461 282.996C365.086 309.052 338.497 332.248 307.329 347.149C292.135 354.404 275.901 359.553 259.224 361.919C250.586 363.141 234.092 366.704 228.941 357.654C224.075 349.099 225.793 335.369 227.197 326.085C230.293 305.672 239.243 286.61 249.26 268.745C257.429 254.131 266.509 240.037 276.395 226.54C296.584 198.924 320.155 173.803 346.198 151.622C380.098 122.757 418.239 98.8849 459.007 80.8899C469.778 117.27 461.739 155.678 446.571 189.718ZM747.429 292.357C730.83 326.189 710.459 358.408 689.047 389.38C668.988 418.4 647.186 446.277 623.095 472.047C576.108 522.34 519.158 565.559 452.529 585.582C419.982 595.36 371.096 608.414 350.023 572.528C329.131 536.928 350.517 496.908 370.524 466.404C408.378 408.753 457.108 358.668 512.445 317.608C568.121 276.287 630.223 243.885 695.343 220.169C721.958 210.47 749.068 202.226 776.568 195.387C773.706 229.245 762.388 261.906 747.429 292.357Z" stroke="#296CF0" stroke-width="12.3685" stroke-miterlimit="10"/>
</svg>
